#!OML:ASF F:\VICON\USERDATA\INSTALL\rory3\rory3.ASF
:FULLY-SPECIFIED
:DEGREES
2867
root -1.65828 13.9335 4.09442 -370.181 5.85329 358.609
lowerback 18.8011 6.0718 -1.22433
upperback 3.63187 7.95275 2.5123
thorax -7.05975 3.9145 1.41072
lowerneck -13.2181 -8.6322 -5.89953
upperneck 17.3909 -11.8169 6.08058
head 8.29376 -5.41117 1.61992
rclavicle 1.70955e-014 -2.06736e-014
rhumerus 44.9927 23.7624 -83.3012
rradius 35.1602
rwrist -47.2836
rhand -8.96897 11.2128
rfingers 7.12502
rthumb 16.9763 -18.0653
lclavicle 1.70955e-014 -2.06736e-014
lhumerus 10.7093 -78.2518 79.4536
lradius 86.8508
lwrist 59.8017
lhand 0.153529 17.1192
lfingers 7.12502
lthumb 25.7374 45.3987
rfemur -15.0343 -21.3511 23.5222
rtibia 67.2478
rfoot -40.2647 -8.57113
rtoes 2.40656
lfemur -33.4419 -17.5046 5.37047
ltibia 26.3795
lfoot 11.8495 -4.16602
ltoes -44.6985
2868
root -1.6418 13.9381 4.07274 -370.035 5.1027 359.017
lowerback 18.5149 5.98842 -1.63285
upperback 3.64674 7.75479 2.38523
thorax -6.91628 3.82725 1.57946
lowerneck -12.7401 -8.44465 -5.34891
upperneck 17.0277 -11.5784 5.63437
head 8.00936 -5.32629 1.44611
rclavicle 3.03147e-014 -8.74653e-015
rhumerus 45.1974 25.8341 -81.8507
rradius 36.5017
rwrist -49.7983
rhand -9.97894 10.7899
rfingers 7.12502
rthumb 16.0039 -18.569
lclavicle 3.03147e-014 -8.74653e-015
lhumerus 9.29286 -76.7339 81.1302
lradius 85.7414
lwrist 62.457
lhand 3.22089 19.3198
lfingers 7.12502
lthumb 28.6716 47.1396
rfemur -15.4872 -20.7986 23.2146
rtibia 67.4869
rfoot -40.0602 -8.65085
rtoes 0.489454
lfemur -33.0182 -17.8459 5.37116
ltibia 25.9512
lfoot 12.1976 -2.69563
ltoes -43.498
2869
root -1.62594 13.9457 4.05027 -369.924 4.25293 359.238
lowerback 18.3843 6.02192 -1.69492
upperback 3.49507 7.7797 2.25423
thorax -7.00085 3.83954 1.4721
lowerneck -12.0243 -8.53648 -5.28629
upperneck 16.7523 -11.766 5.81325
head 7.81021 -5.41809 1.50559
rclavicle 2.17421e-014 5.56597e-015
rhumerus 44.2083 25.7764 -83.7942
rradius 36.3722
rwrist -49.1031
rhand -9.66333 10.5631
rfingers 7.12502
rthumb 16.3078 -18.7712
lclavicle 2.17421e-014 5.56597e-015
lhumerus 8.05866 -77.3533 82.5967
lradius 85.3482
lwrist 64.9953
lhand 0.400358 19.4952
lfingers 7.12502
lthumb 25.9738 47.7403
rfemur -15.8942 -20.0987 23.1542
rtibia 67.6582
rfoot -39.7447 -8.64497
rtoes 1.09763
lfemur -32.5912 -17.8983 5.43319
ltibia 25.795
lfoot 12.2878 -1.49717
ltoes -42.2039
2870
root -1.61022 13.9423 4.02646 -369.858 3.31517 359.229
lowerback 18.2041 5.82429 -1.88171
upperback 3.7113 7.49947 2.49091
thorax -6.71327 3.70981 1.9256
lowerneck -12.2745 -8.32598 -5.77654
upperneck 16.6187 -11.3944 5.98349
head 7.82852 -5.25365 1.67205
rclavicle -1.82882e-014 -1.19271e-015
rhumerus 44.338 27.3981 -83.7625
rradius 37.1587
rwrist -50.5334
rhand -9.7153 10.3003
rfingers 7.12502
rthumb 16.2578 -19.0381
lclavicle -1.82882e-014 -1.19271e-015
lhumerus 7.70503 -76.1238 83.4308
lradius 84.4114
lwrist 64.8726
lhand 0.171344 20.0463
lfingers 7.12502
lthumb 25.7545 48.3234
rfemur -16.32 -19.3148 23.4241
rtibia 67.8248
rfoot -39.591 -8.79187
rtoes 0.743281
lfemur -32.2921 -17.7522 5.75158
ltibia 25.7856
lfoot 12.3259 -0.363376
ltoes -41.0909
2871
root -1.59391 13.9503 4.00753 -369.8 2.29421 359.423
lowerback 17.9739 5.85456 -2.08034
upperback 3.9129 7.49707 2.45222
thorax -6.39206 3.7108 2.02728
lowerneck -12.571 -8.25859 -5.68854
upperneck 16.5535 -11.3344 6.1466
head 7.86059 -5.19913 1.70741
rclavicle 1.72446e-014 5.96354e-015
rhumerus 43.9047 27.8965 -84.6947
rradius 37.7264
rwrist -50.5661
rhand -9.49888 10.059
rfingers 7.12502
rthumb 16.4662 -19.2622
lclavicle 1.72446e-014 5.96354e-015
lhumerus 9.45552 -75.4576 82.1283
lradius 83.3676
lwrist 65.9692
lhand 1.86526 21.5796
lfingers 7.12502
lthumb 27.3757 49.6112
rfemur -16.5962 -18.5423 23.3705
rtibia 67.9311
rfoot -39.3322 -8.67073
rtoes 0.435306
lfemur -31.7412 -17.8086 5.87038
ltibia 25.7148
lfoot 12.2294 1.0323
ltoes -39.5936
2872
root -1.57064 13.9568 3.98568 -369.726 1.50973 359.883
lowerback 17.9594 5.76304 -2.42217
upperback 3.81984 7.30394 2.32435
thorax -6.49715 3.62169 2.12438
lowerneck -12.5989 -8.20349 -5.44322
upperneck 16.8907 -11.2564 5.77184
head 7.93424 -5.17505 1.5523
rclavicle 4.51738e-014 -6.75868e-015
rhumerus 43.673 29.1695 -84.7477
rradius 38.3298
rwrist -52.0057
rhand -9.96237 9.9729
rfingers 7.12502
rthumb 16.0199 -19.3848
lclavicle 4.51738e-014 -6.75868e-015
lhumerus 7.35012 -73.7548 84.501
lradius 82.2593
lwrist 68.7818
lhand 4.56902 24.1325
lfingers 7.12502
lthumb 29.9588 51.7272
rfemur -16.9546 -17.9518 22.9276
rtibia 68.1413
rfoot -39.1078 -8.39519
rtoes 1.09372
lfemur -31.3472 -18.078 5.64196
ltibia 25.6509
lfoot 12.0318 2.3976
ltoes -38.0478
